<svg width="20" height="21" viewBox="0 0 20 21" fill="none" xmlns="http://www.w3.org/2000/svg">
<path d="M6.97082 17.2219C7.19971 17.2219 7.39091 17.1393 7.54443 16.974C7.69796 16.8088 7.77472 16.6041 7.77472 16.3599C7.77472 16.1157 7.69761 15.9121 7.54339 15.7491C7.38847 15.5853 7.19657 15.5035 6.96768 15.5035C6.73879 15.5035 6.54794 15.5857 6.39511 15.7502C6.24159 15.9155 6.16483 16.1202 6.16483 16.3644C6.16483 16.6085 6.24194 16.8121 6.39616 16.9751C6.55108 17.1389 6.74298 17.2208 6.97187 17.2208M10.1121 17.2208C10.3403 17.2208 10.5311 17.1385 10.6847 16.974C10.8382 16.8088 10.9149 16.6041 10.9149 16.3599C10.9149 16.1157 10.8378 15.9121 10.6836 15.7491C10.5287 15.5853 10.3368 15.5035 10.1079 15.5035C9.87901 15.5035 9.68816 15.5857 9.53534 15.7502C9.38181 15.9155 9.30505 16.1202 9.30505 16.3644C9.30505 16.6085 9.38216 16.8121 9.53638 16.9751C9.6913 17.1389 9.8832 17.2208 10.1121 17.2208ZM13.2523 17.2208C13.4805 17.2208 13.6714 17.1385 13.8249 16.974C13.9784 16.8088 14.0552 16.6041 14.0552 16.3599C14.0552 16.1157 13.9781 15.9121 13.8238 15.7491C13.6689 15.5853 13.477 15.5035 13.2481 15.5035C13.0192 15.5035 12.8284 15.5857 12.6756 15.7502C12.522 15.9155 12.4453 16.1202 12.4453 16.3644C12.4453 16.6085 12.5224 16.8121 12.6766 16.9751C12.8315 17.1389 13.0234 17.2208 13.2523 17.2208ZM6.97187 13.871C7.20006 13.871 7.39091 13.7887 7.54443 13.6242C7.69796 13.459 7.77472 13.2543 7.77472 13.0101C7.77472 12.7659 7.69761 12.5623 7.54339 12.3993C7.38847 12.2356 7.19657 12.1537 6.96768 12.1537C6.73879 12.1537 6.54794 12.2359 6.39511 12.4004C6.24159 12.5657 6.16483 12.7704 6.16483 13.0146C6.16483 13.2587 6.24194 13.4623 6.39616 13.6253C6.55108 13.7891 6.74298 13.871 6.97187 13.871ZM10.1121 13.871C10.3403 13.871 10.5311 13.7887 10.6847 13.6242C10.8382 13.459 10.9149 13.2543 10.9149 13.0101C10.9149 12.7659 10.8378 12.5623 10.6836 12.3993C10.5287 12.2356 10.3368 12.1537 10.1079 12.1537C9.87901 12.1537 9.68816 12.2359 9.53534 12.4004C9.38181 12.5657 9.30505 12.7704 9.30505 13.0146C9.30505 13.2587 9.38216 13.4623 9.53638 13.6253C9.6913 13.7891 9.8832 13.871 10.1121 13.871ZM13.2523 13.871C13.4805 13.871 13.6714 13.7887 13.8249 13.6242C13.9784 13.459 14.0552 13.2543 14.0552 13.0101C14.0552 12.7659 13.9781 12.5623 13.8238 12.3993C13.6689 12.2356 13.477 12.1537 13.2481 12.1537C13.0192 12.1537 12.8284 12.2359 12.6756 12.4004C12.522 12.5657 12.4453 12.7704 12.4453 13.0146C12.4453 13.2587 12.5224 13.4623 12.6766 13.6253C12.8315 13.7891 13.0234 13.871 13.2523 13.871ZM5.52004 10.0924H14.7V9.66253C14.7 8.31815 14.2499 7.16619 13.3497 6.20666C12.4495 5.24638 11.3696 4.76624 10.11 4.76624C8.84972 4.76624 7.76983 5.24638 6.87033 6.20666C5.97014 7.16693 5.52004 8.31889 5.52004 9.66253V10.0924ZM6.49874 9.10423C6.63831 8.15512 7.04409 7.35973 7.7161 6.71806C8.38811 6.07639 9.18607 5.75518 10.11 5.75443C11.0346 5.75443 11.8329 6.07564 12.5049 6.71806C13.1769 7.36048 13.5824 8.15587 13.7213 9.10423H6.49874ZM2.37982 20.8285C1.89832 20.8285 1.49637 20.6566 1.17397 20.3127C0.850878 19.968 0.689331 19.5389 0.689331 19.0252V2.53304C0.689331 2.01941 0.850878 1.59063 1.17397 1.24672C1.49637 0.902065 1.89832 0.729736 2.37982 0.729736H17.8402C18.3217 0.729736 18.7236 0.902065 19.046 1.24672C19.3691 1.59063 19.5307 2.01941 19.5307 2.53304V19.0252C19.5307 19.5389 19.3695 19.9676 19.0471 20.3115C18.724 20.6562 18.3217 20.8285 17.8402 20.8285H2.37982ZM2.37982 19.7119H17.8402C18.0007 19.7119 18.1483 19.6405 18.2829 19.4975C18.4169 19.3539 18.4839 19.1964 18.4839 19.0252V2.53304C18.4839 2.36183 18.4169 2.20439 18.2829 2.06072C18.1483 1.9178 18.0007 1.84634 17.8402 1.84634H2.37982C2.21932 1.84634 2.07173 1.9178 1.93705 2.06072C1.80306 2.20439 1.73607 2.36183 1.73607 2.53304V19.0252C1.73607 19.1964 1.80306 19.3539 1.93705 19.4975C2.07173 19.6405 2.21932 19.7119 2.37982 19.7119Z" fill="#404040"/>
</svg>
