<svg width="20" height="21" viewBox="0 0 20 21" fill="none" xmlns="http://www.w3.org/2000/svg">
<path d="M3.93386 14.0005H15.448V15.2667C15.448 15.4082 15.492 15.5262 15.5799 15.6207C15.6678 15.7145 15.7781 15.7614 15.9107 15.7614C16.0432 15.7614 16.1539 15.7145 16.2425 15.6207C16.3304 15.5269 16.3744 15.4089 16.3744 15.2667V11.9348C16.3744 11.6445 16.3046 11.3412 16.165 11.0248C16.0255 10.7092 15.8336 10.4568 15.5893 10.2677V8.37398C15.5893 7.86034 15.4278 7.43119 15.1047 7.08654C14.7823 6.74262 14.38 6.57067 13.8978 6.57067H10.858C10.5859 6.57067 10.3525 6.62352 10.1578 6.72923C9.96308 6.83493 9.80747 6.97972 9.69093 7.16358C9.57439 6.97972 9.41878 6.83493 9.22408 6.72923C9.02939 6.62352 8.79562 6.57067 8.52277 6.57067H5.48513C5.00362 6.57067 4.60133 6.74262 4.27823 7.08654C3.95514 7.43119 3.79359 7.86034 3.79359 8.37398V10.2677C3.54935 10.4568 3.35745 10.7092 3.21789 11.0248C3.07832 11.3404 3.00854 11.6438 3.00854 11.9348V15.2667C3.00854 15.4082 3.0525 15.5262 3.14043 15.6207C3.22835 15.7145 3.33896 15.7614 3.47224 15.7614C3.60483 15.7614 3.71509 15.7145 3.80301 15.6207C3.89094 15.5269 3.9349 15.4089 3.9349 15.2667L3.93386 14.0005ZM3.93386 13.0123V11.8957C3.93386 11.5794 4.03434 11.3144 4.23532 11.1007C4.43629 10.8871 4.68472 10.7799 4.9806 10.7791H14.4013C14.6978 10.7791 14.9466 10.8863 15.1476 11.1007C15.3486 11.3151 15.4487 11.5801 15.448 11.8957V13.0123H3.93386ZM4.71891 9.79094V8.24557C4.71891 8.04458 4.77927 7.8797 4.9 7.75091C5.02072 7.62213 5.17494 7.55774 5.36266 7.55774H8.58348C8.77189 7.55774 8.92646 7.62213 9.04718 7.75091C9.16791 7.88044 9.22827 8.04532 9.22827 8.24557V9.79094H4.71891ZM10.1536 9.79094V8.24557C10.1536 8.04458 10.2139 7.8797 10.3347 7.75091C10.4554 7.62213 10.61 7.55774 10.7984 7.55774H14.0192C14.2069 7.55774 14.3611 7.62213 14.4819 7.75091C14.6026 7.8797 14.6629 8.04458 14.6629 8.24557V9.79094H10.1536ZM1.96075 20.8285C1.47925 20.8285 1.0773 20.6566 0.754905 20.3127C0.431811 19.968 0.270264 19.5389 0.270264 19.0252V2.53304C0.270264 2.01941 0.431811 1.59063 0.754905 1.24672C1.0773 0.902065 1.47925 0.729736 1.96075 0.729736H17.4211C17.9026 0.729736 18.3046 0.902065 18.627 1.24672C18.95 1.59063 19.1116 2.01941 19.1116 2.53304V19.0252C19.1116 19.5389 18.9504 19.9676 18.628 20.3115C18.3049 20.6562 17.9026 20.8285 17.4211 20.8285H1.96075ZM1.96075 19.7119H17.4211C17.5816 19.7119 17.7292 19.6405 17.8639 19.4975C17.9979 19.3539 18.0649 19.1964 18.0649 19.0252V2.53304C18.0649 2.36183 17.9979 2.20439 17.8639 2.06072C17.7292 1.9178 17.5816 1.84634 17.4211 1.84634H1.96075C1.80025 1.84634 1.65266 1.9178 1.51798 2.06072C1.384 2.20439 1.317 2.36183 1.317 2.53304V19.0252C1.317 19.1964 1.384 19.3539 1.51798 19.4975C1.65266 19.6405 1.80025 19.7119 1.96075 19.7119Z" fill="#404040"/>
</svg>
