<svg width="64" height="69" viewBox="0 0 64 69" fill="none" xmlns="http://www.w3.org/2000/svg">
<path d="M59.8862 61.6162H56.7535V3.5836C56.7535 1.5354 55.5003 0.169922 53.6207 0.169922H9.76185C7.88218 0.169922 6.62907 1.5354 6.62907 3.5836V61.6162H3.4963C1.61663 61.6162 0.363525 62.9817 0.363525 65.0299C0.363525 67.0781 1.61663 68.4436 3.4963 68.4436H59.8862C61.7659 68.4436 63.019 67.0781 63.019 65.0299C63.019 62.9817 61.7659 61.6162 59.8862 61.6162ZM22.2929 13.8247H25.4257C27.3054 13.8247 28.5585 15.1901 28.5585 17.2383C28.5585 19.2865 27.3054 20.652 25.4257 20.652H22.2929C20.4133 20.652 19.1602 19.2865 19.1602 17.2383C19.1602 15.1901 20.4133 13.8247 22.2929 13.8247ZM19.1602 30.8931C19.1602 28.8449 20.4133 27.4794 22.2929 27.4794H25.4257C27.3054 27.4794 28.5585 28.8449 28.5585 30.8931C28.5585 32.9413 27.3054 34.3068 25.4257 34.3068H22.2929C20.4133 34.3068 19.1602 32.9413 19.1602 30.8931ZM41.0896 61.6162H22.2929V44.5478C22.2929 42.4996 23.5461 41.1341 25.4257 41.1341H37.9568C39.8365 41.1341 41.0896 42.4996 41.0896 44.5478V61.6162ZM41.0896 34.3068H37.9568C36.0771 34.3068 34.824 32.9413 34.824 30.8931C34.824 28.8449 36.0771 27.4794 37.9568 27.4794H41.0896C42.9692 27.4794 44.2224 28.8449 44.2224 30.8931C44.2224 32.9413 42.9692 34.3068 41.0896 34.3068ZM41.0896 20.652H37.9568C36.0771 20.652 34.824 19.2865 34.824 17.2383C34.824 15.1901 36.0771 13.8247 37.9568 13.8247H41.0896C42.9692 13.8247 44.2224 15.1901 44.2224 17.2383C44.2224 19.2865 42.9692 20.652 41.0896 20.652Z" fill="#c17818"/>
</svg>
