<svg width="52" height="66" viewBox="0 0 52 66" fill="none" xmlns="http://www.w3.org/2000/svg">
<path d="M35.8299 19.7349H49.953L32.6201 2.12642V16.4741C32.6201 18.4306 33.904 19.7349 35.8299 19.7349ZM35.8299 26.2566C30.3732 26.2566 26.2004 22.0175 26.2004 16.4741V0.169922H10.1514C4.69472 0.169922 0.521973 4.409 0.521973 9.95242V55.6041C0.521973 61.1475 4.69472 65.3866 10.1514 65.3866H42.2495C47.7062 65.3866 51.8789 61.1475 51.8789 55.6041V26.2566H35.8299ZM16.571 19.7349H19.7808C21.7067 19.7349 22.9906 21.0392 22.9906 22.9957C22.9906 24.9522 21.7067 26.2566 19.7808 26.2566H16.571C14.6451 26.2566 13.3612 24.9522 13.3612 22.9957C13.3612 21.0392 14.6451 19.7349 16.571 19.7349ZM35.8299 52.3432H16.571C14.6451 52.3432 13.3612 51.0389 13.3612 49.0824C13.3612 47.1259 14.6451 45.8216 16.571 45.8216H35.8299C37.7558 45.8216 39.0397 47.1259 39.0397 49.0824C39.0397 51.0389 37.7558 52.3432 35.8299 52.3432ZM35.8299 39.2999H16.571C14.6451 39.2999 13.3612 37.9956 13.3612 36.0391C13.3612 34.0826 14.6451 32.7782 16.571 32.7782H35.8299C37.7558 32.7782 39.0397 34.0826 39.0397 36.0391C39.0397 37.9956 37.7558 39.2999 35.8299 39.2999Z" fill="#1095D0"/>
</svg>
