<svg width="63" height="66" viewBox="0 0 63 66" fill="none" xmlns="http://www.w3.org/2000/svg">
<path d="M61.8479 28.9461L33.7894 0.958405C33.2001 0.365894 32.4291 0.0371094 31.6289 0.0371094C30.8288 0.0371094 30.0578 0.365894 29.4685 0.958405L1.41003 28.9461C0.932136 29.4228 0.597096 30.0466 0.448888 30.7355C0.300679 31.4244 0.34623 32.1463 0.579559 32.8063C0.812889 33.4664 1.22309 34.0338 1.75632 34.4341C2.28955 34.8343 2.92088 35.0487 3.56744 35.0492H8.04589V63.0568C8.04589 63.5846 8.23743 64.0908 8.57838 64.464C8.91933 64.8372 9.38175 65.0469 9.86393 65.0469H25.2688C25.751 65.0469 26.2134 64.8372 26.5544 64.464C26.8953 64.0908 27.0869 63.5846 27.0869 63.0568V46.0612H36.1468V63.0568C36.1468 63.5846 36.3383 64.0908 36.6793 64.464C37.0202 64.8372 37.4826 65.0469 37.9648 65.0469H53.3697C53.8519 65.0469 54.3143 64.8372 54.6553 64.464C54.9962 64.0908 55.1878 63.5846 55.1878 63.0568V35.0492H59.6723C60.3188 35.0487 60.9501 34.8343 61.4834 34.4341C62.0166 34.0338 62.4268 33.4664 62.6601 32.8063C62.8935 32.1463 62.939 31.4244 62.7908 30.7355C62.6426 30.0466 62.3076 29.4228 61.8297 28.9461H61.8479ZM54.7272 4.05636H42.3766L56.5634 18.1796V6.06638C56.5658 5.80168 56.52 5.53911 56.4286 5.29404C56.3372 5.04897 56.202 4.82633 56.031 4.63915C55.86 4.45197 55.6566 4.30401 55.4327 4.20394C55.2089 4.10387 54.969 4.0537 54.7272 4.05636Z" fill="#1095D0"/>
</svg>
