<svg width="49" height="50" viewBox="0 0 49 50" fill="none" xmlns="http://www.w3.org/2000/svg">
<rect x="0.87318" y="1.24818" width="47.5036" height="47.5036" rx="23.7518" fill="white"/>
<rect x="0.87318" y="1.24818" width="47.5036" height="47.5036" rx="23.7518" stroke="#14161B" stroke-width="1.21804"/>
<path d="M24.6245 18.8554C28.2216 18.8554 31.1905 21.8244 31.1905 25.4214C31.1905 29.0756 28.2216 31.9874 24.6245 31.9874C20.9704 31.9874 18.0585 29.0756 18.0585 25.4214C18.0585 21.8244 20.9704 18.8554 24.6245 18.8554ZM24.6245 29.7036C26.9655 29.7036 28.8496 27.8194 28.8496 25.4214C28.8496 23.0805 26.9655 21.1964 24.6245 21.1964C22.2265 21.1964 20.3424 23.0805 20.3424 25.4214C20.3424 27.8194 22.2836 29.7036 24.6245 29.7036ZM32.9605 18.6271C32.9605 17.7706 32.2753 17.0855 31.4189 17.0855C30.5625 17.0855 29.8773 17.7706 29.8773 18.6271C29.8773 19.4835 30.5625 20.1686 31.4189 20.1686C32.2753 20.1686 32.9605 19.4835 32.9605 18.6271ZM37.2998 20.1686C37.414 22.2812 37.414 28.6188 37.2998 30.7313C37.1856 32.7868 36.7288 34.5567 35.2443 36.0983C33.7598 37.5828 31.9328 38.0396 29.8773 38.1538C27.7648 38.2679 21.4272 38.2679 19.3146 38.1538C17.2592 38.0396 15.4892 37.5828 13.9477 36.0983C12.4632 34.5567 12.0064 32.7868 11.8922 30.7313C11.778 28.6188 11.778 22.2812 11.8922 20.1686C12.0064 18.1132 12.4632 16.2861 13.9477 14.8016C15.4892 13.3172 17.2592 12.8604 19.3146 12.7462C21.4272 12.632 27.7648 12.632 29.8773 12.7462C31.9328 12.8604 33.7598 13.3172 35.2443 14.8016C36.7288 16.2861 37.1856 18.1132 37.2998 20.1686ZM34.5592 32.9581C35.2443 31.3023 35.073 27.3056 35.073 25.4214C35.073 23.5944 35.2443 19.5977 34.5592 17.8848C34.1024 16.8 33.246 15.8865 32.1612 15.4868C30.4483 14.8016 26.4516 14.9729 24.6245 14.9729C22.7404 14.9729 18.7437 14.8016 17.0879 15.4868C15.946 15.9436 15.0896 16.8 14.6328 17.8848C13.9477 19.5977 14.1189 23.5944 14.1189 25.4214C14.1189 27.3056 13.9477 31.3023 14.6328 32.9581C15.0896 34.1 15.946 34.9564 17.0879 35.4132C18.7437 36.0983 22.7404 35.927 24.6245 35.927C26.4516 35.927 30.4483 36.0983 32.1612 35.4132C33.246 34.9564 34.1595 34.1 34.5592 32.9581Z" fill="#14161B"/>
</svg>
