<svg width="1716" height="653" viewBox="0 0 1716 653" fill="none" xmlns="http://www.w3.org/2000/svg">
<path d="M0.583135 0L0.583075 652.869M214.885 0L214.885 652.869M429.187 0L429.187 652.869M643.489 0L643.489 652.869M857.792 0L857.792 652.869M1072.09 0L1072.09 652.869M1286.4 0L1286.4 652.869M1500.7 0L1500.7 652.869M1715 0L1715 652.869M0 634.615H1714.42M0 531.902L1714.42 531.902M0 429.189L1714.42 429.189M0 326.476L1714.42 326.476M0 223.763L1714.42 223.763M0 121.05L1714.42 121.05M0 18.3372L1714.42 18.3373" stroke="url(#paint0_radial_61_528)" stroke-opacity="0.24" stroke-width="0.60902"/>
<defs>
<radialGradient id="paint0_radial_61_528" cx="0" cy="0" r="1" gradientUnits="userSpaceOnUse" gradientTransform="translate(857.5 326.435) rotate(90) scale(326.435 857.5)">
<stop stop-color="white"/>
<stop offset="1" stop-color="white" stop-opacity="0.4"/>
</radialGradient>
</defs>
</svg>
