<svg width="49" height="50" viewBox="0 0 49 50" fill="none" xmlns="http://www.w3.org/2000/svg">
<rect x="0.88734" y="1.24818" width="47.5036" height="47.5036" rx="23.7518" fill="white"/>
<rect x="0.88734" y="1.24818" width="47.5036" height="47.5036" rx="23.7518" stroke="#14161B" stroke-width="1.21804"/>
<path d="M17.5593 36.3838H12.2494V19.3122H17.5593V36.3838ZM14.8758 17.0284C13.2201 17.0284 11.8498 15.601 11.8498 13.8881C11.8498 11.5472 14.362 10.0627 16.4174 11.2617C17.388 11.7756 17.959 12.8033 17.959 13.8881C17.959 15.601 16.5887 17.0284 14.8758 17.0284ZM37.3715 36.3838H32.1187V28.1049C32.1187 26.1066 32.0616 23.5944 29.321 23.5944C26.5804 23.5944 26.1808 25.7069 26.1808 27.9336V36.3838H20.8709V19.3122H25.9524V21.6531H26.0095C26.7517 20.3399 28.4646 18.9125 31.0339 18.9125C36.4009 18.9125 37.4286 22.4525 37.4286 27.0201V36.3838H37.3715Z" fill="#14161B"/>
</svg>
