<svg width="37" height="37" viewBox="0 0 37 37" fill="none" xmlns="http://www.w3.org/2000/svg">
<path d="M18.6287 2.36914C15.2904 2.37308 12.09 3.70095 9.72946 6.06148C7.36893 8.422 6.04106 11.6224 6.03712 14.9607C6.03312 17.6888 6.92423 20.3428 8.57375 22.5156C8.57375 22.5156 8.91716 22.9678 8.97325 23.033L18.6287 34.4204L28.2887 23.0273C28.3391 22.9667 28.6836 22.5156 28.6836 22.5156L28.6848 22.5122C30.3335 20.3403 31.2242 17.6875 31.2203 14.9607C31.2163 11.6224 29.8884 8.422 27.5279 6.06148C25.1674 3.70095 21.967 2.37308 18.6287 2.36914ZM18.6287 19.5395C17.7231 19.5395 16.8378 19.2709 16.0849 18.7678C15.3319 18.2647 14.745 17.5496 14.3985 16.7129C14.0519 15.8763 13.9612 14.9556 14.1379 14.0674C14.3146 13.1792 14.7507 12.3634 15.391 11.723C16.0314 11.0827 16.8472 10.6466 17.7354 10.4699C18.6236 10.2933 19.5442 10.3839 20.3809 10.7305C21.2176 11.077 21.9327 11.6639 22.4358 12.4169C22.9389 13.1699 23.2074 14.0551 23.2074 14.9607C23.2059 16.1746 22.723 17.3383 21.8647 18.1967C21.0063 19.0551 19.8426 19.5379 18.6287 19.5395Z" fill="white"/>
</svg>
