<svg width="37" height="37" viewBox="0 0 37 37" fill="none" xmlns="http://www.w3.org/2000/svg">
<path d="M30.8387 16.9818H33.8912C33.8912 9.15213 27.98 3.24707 20.1396 3.24707V6.29957C26.3393 6.29957 30.8387 10.7913 30.8387 16.9818Z" fill="white"/>
<path d="M20.155 12.4051C23.3647 12.4051 24.7338 13.7741 24.7338 16.9838H27.7863C27.7863 12.0617 25.0772 9.35257 20.155 9.35257V12.4051ZM25.3779 20.7124C25.0846 20.4459 24.6992 20.3037 24.3031 20.316C23.907 20.3282 23.5311 20.4939 23.2548 20.7781L19.6025 24.5342C18.7234 24.3663 16.956 23.8153 15.1367 22.0006C13.3174 20.1798 12.7664 18.4078 12.6031 17.5348L16.3562 13.881C16.6407 13.6049 16.8066 13.229 16.8189 12.8327C16.8311 12.4365 16.6887 12.051 16.4218 11.7579L10.7823 5.55678C10.5153 5.26276 10.1442 5.08441 9.74776 5.05962C9.35135 5.03483 8.96089 5.16554 8.65931 5.424L5.34734 8.26435C5.08347 8.52918 4.92597 8.88164 4.90473 9.25489C4.88184 9.63645 4.44533 18.6749 11.4539 25.6865C17.568 31.7991 25.2268 32.2463 27.336 32.2463C27.6443 32.2463 27.8336 32.2372 27.884 32.2341C28.2571 32.2132 28.6094 32.055 28.873 31.79L31.7118 28.4765C31.9704 28.1751 32.1014 27.7847 32.0769 27.3883C32.0524 26.9919 31.8743 26.6207 31.5805 26.3535L25.3779 20.7124Z" fill="white"/>
</svg>
