<svg width="29" height="29" viewBox="0 0 29 29" fill="none" xmlns="http://www.w3.org/2000/svg">
<path d="M25.7929 28.286L16.6373 19.1304C15.9164 19.6831 15.0333 20.1217 13.988 20.4461C12.9427 20.7705 11.8793 20.9327 10.798 20.9327C7.93835 20.9327 5.51729 19.9415 3.53479 17.959C1.55229 15.9765 0.561035 13.5554 0.561035 10.6958C0.561035 7.83618 1.55229 5.41512 3.53479 3.43262C5.51729 1.45011 7.93835 0.458862 10.798 0.458862C13.6576 0.458862 16.0786 1.45011 18.0611 3.43262C20.0436 5.41512 21.0349 7.83618 21.0349 10.6958C21.0349 11.7772 20.8847 12.8105 20.5843 13.7957C20.2839 14.7809 19.8454 15.6581 19.2687 16.427L28.4603 25.6186L25.7929 28.286ZM10.798 17.1119C12.6002 17.1119 14.1202 16.4931 15.3577 15.2555C16.5953 14.018 17.2141 12.4981 17.2141 10.6958C17.2141 8.89351 16.5953 7.37359 15.3577 6.13603C14.1202 4.89847 12.6002 4.27969 10.798 4.27969C8.99568 4.27969 7.47577 4.89847 6.2382 6.13603C5.00064 7.37359 4.38186 8.89351 4.38186 10.6958C4.38186 12.4981 5.00064 14.018 6.2382 15.2555C7.47577 16.4931 8.99568 17.1119 10.798 17.1119Z" fill="#B6B6B7"/>
</svg>
