<svg width="64" height="58" viewBox="0 0 64 58" fill="none" xmlns="http://www.w3.org/2000/svg">
<path d="M63.1683 1.75181V8.46088C63.1683 8.90572 62.9946 9.33234 62.6854 9.64689C62.3763 9.96144 61.9569 10.1381 61.5197 10.1381C61.0825 10.1381 60.6631 9.96144 60.354 9.64689C60.0448 9.33234 59.8711 8.90572 59.8711 8.46088V5.8108L42.8907 23.0531C42.7435 23.2143 42.5647 23.3423 42.366 23.4289C42.1672 23.5156 41.9529 23.559 41.7367 23.5563H32.7683L23.3714 39.5239C23.2385 39.7408 23.0603 39.9254 22.8495 40.0645C22.6386 40.2037 22.4003 40.2939 22.1514 40.329H21.9536C21.7374 40.3317 21.523 40.2883 21.3243 40.2016C21.1255 40.115 20.9468 39.9869 20.7996 39.8258L14.6669 33.6199H2.17056C1.73333 33.6199 1.314 33.4432 1.00483 33.1286C0.695663 32.8141 0.521973 32.3875 0.521973 31.9426C0.521973 31.4978 0.695663 31.0712 1.00483 30.7566C1.314 30.4421 1.73333 30.2654 2.17056 30.2654H15.3593C15.5755 30.2627 15.7898 30.3061 15.9886 30.3927C16.1873 30.4794 16.3661 30.6074 16.5133 30.7685L21.6239 35.9345L30.4273 21.0068C30.5753 20.7596 30.7836 20.5555 31.0321 20.4144C31.2805 20.2733 31.5606 20.2001 31.8451 20.2018H41.0442L57.5301 3.42908H54.9254C54.4881 3.42908 54.0688 3.25236 53.7596 2.93781C53.4505 2.62327 53.2768 2.19665 53.2768 1.75181C53.2768 1.30697 53.4505 0.880349 53.7596 0.5658C54.0688 0.251251 54.4881 0.074539 54.9254 0.074539H61.5197C61.7256 0.0246328 61.9402 0.0246328 62.1462 0.074539C62.547 0.247773 62.8661 0.572462 63.0364 0.980264C63.1529 1.21901 63.1987 1.48706 63.1683 1.75181ZM63.1683 21.879V55.4244C63.1683 55.8692 62.9946 56.2959 62.6854 56.6104C62.3763 56.9249 61.9569 57.1017 61.5197 57.1017H51.6282C51.1909 57.1017 50.7716 56.9249 50.4624 56.6104C50.1533 56.2959 49.9796 55.8692 49.9796 55.4244V21.879C49.9796 21.4342 50.1533 21.0076 50.4624 20.693C50.7716 20.3785 51.1909 20.2018 51.6282 20.2018H61.5197C61.9569 20.2018 62.3763 20.3785 62.6854 20.693C62.9946 21.0076 63.1683 21.4342 63.1683 21.879ZM46.6824 28.5881V55.4244C46.6824 55.8692 46.5087 56.2959 46.1996 56.6104C45.8904 56.9249 45.4711 57.1017 45.0338 57.1017H35.1423C34.7051 57.1017 34.2857 56.9249 33.9766 56.6104C33.6674 56.2959 33.4937 55.8692 33.4937 55.4244V28.5881C33.4937 28.1433 33.6674 27.7166 33.9766 27.4021C34.2857 27.0875 34.7051 26.9108 35.1423 26.9108H45.0338C45.4711 26.9108 45.8904 27.0875 46.1996 27.4021C46.5087 27.7166 46.6824 28.1433 46.6824 28.5881ZM30.1965 45.3608V55.4244C30.1965 55.8692 30.0229 56.2959 29.7137 56.6104C29.4045 56.9249 28.9852 57.1017 28.548 57.1017H18.6564C18.2192 57.1017 17.7999 56.9249 17.4907 56.6104C17.1815 56.2959 17.0078 55.8692 17.0078 55.4244V45.3608C17.0078 44.9159 17.1815 44.4893 17.4907 44.1748C17.7999 43.8602 18.2192 43.6835 18.6564 43.6835H28.548C28.9852 43.6835 29.4045 43.8602 29.7137 44.1748C30.0229 44.4893 30.1965 44.9159 30.1965 45.3608ZM13.7107 38.6517V55.4244C13.7107 55.8692 13.537 56.2959 13.2278 56.6104C12.9186 56.9249 12.4993 57.1017 12.0621 57.1017H2.17056C1.73333 57.1017 1.314 56.9249 1.00483 56.6104C0.695663 56.2959 0.521973 55.8692 0.521973 55.4244V38.6517C0.521973 38.2069 0.695663 37.7803 1.00483 37.4657C1.314 37.1511 1.73333 36.9744 2.17056 36.9744H12.0621C12.4993 36.9744 12.9186 37.1511 13.2278 37.4657C13.537 37.7803 13.7107 38.2069 13.7107 38.6517Z" fill="#1095D0"/>
</svg>
